<svg t="1773410635202" class="icon" viewBox="0 0 1024 1024" version="1.1" xmlns="http://www.w3.org/2000/svg" p-id="13115" id="mx_n_1773410635204" width="200" height="200"><path d="M512 395c-64.5 0-117 52.5-117 117s52.5 117 117 117 117-52.5 117-117-52.5-117-117-117z m0 174c-31.4 0-57-25.6-57-57s25.6-57 57-57 57 25.6 57 57-25.6 57-57 57z" p-id="13116" fill="#8a919f"></path><path d="M979.8 488c-8.6-13.6-18.4-26.8-29.3-39.4-22.7-26.3-50.3-50.4-82.5-72-95.6-64.1-222-99.4-356.1-99.4-134.1 0-260.5 35.3-356.1 99.4-32.2 21.6-59.8 45.7-82.5 72C62.4 461.3 52.6 474.4 44 488c-5 7.9-9.5 15.9-13.6 24 4.1 8.1 8.6 16.1 13.6 24 8.6 13.6 18.4 26.8 29.3 39.4 22.7 26.3 50.3 50.4 82.5 72 95.6 64.1 222 99.4 356.1 99.4 134.1 0 260.5-35.3 356.1-99.4 32.2-21.6 59.8-45.7 82.5-72 10.9-12.7 20.7-25.8 29.3-39.4 5-7.9 9.5-15.9 13.6-24-4.1-8.1-8.6-16.1-13.6-24zM832.6 594.5c-85.2 57.1-199 88.6-320.6 88.6s-235.4-31.5-320.6-88.6c-36.6-24.5-65.7-52.4-86.8-82.5 21-30.1 50.2-58 86.8-82.5 85.2-57.1 199-88.6 320.6-88.6s235.4 31.5 320.6 88.6c36.6 24.5 65.7 52.4 86.8 82.5-21.1 30.1-50.3 58-86.8 82.5z" p-id="13117" fill="#8a919f"></path></svg>