<svg t="1773053690243" class="icon" viewBox="0 0 1024 1024" version="1.1" xmlns="http://www.w3.org/2000/svg" p-id="9517" id="mx_n_1773053690243" width="200" height="200"><path d="M1010.98296239 892.66135381c0-149.81245406-87.33461535-280.98232805-212.29029414-337.24597295 62.4778401-43.66730698 99.93095326-118.57353471 99.93095324-199.86190651 0-112.35934089-74.90622772-206.07610032-174.83718097-231.10082728H717.57224671c-18.81053172 0-37.45311316 18.81053172-37.45311316 43.66730699 0 18.81053172 12.42838763 37.45311316 31.23891935 37.45311456h6.21419381c62.4778401 25.02472554 106.14514707 81.12042154 106.14514707 149.81245405 0 74.90622772-49.8815008 137.38406642-118.5735347 156.02664787-25.02472554 0-37.45311316 18.81053172-37.45311317 43.66730836 0 25.02472554 18.81053172 43.66730698 43.66730699 43.66730699 137.38406642 12.42838763 230.93287558 137.38406642 230.93287558 293.41071429 0 25.02472554 18.81053172 43.66730698 37.45311456 43.66730837 12.5963393-5.7103402 31.23891935-18.30667948 31.23891935-43.16345474z m0 0" p-id="9518" fill="#606266"></path><path d="M86.91555807 986.21016297v-18.8105331C86.91555807 773.91986882 230.51381833 617.89322096 411.56519311 617.89322096c181.05137478 0 324.64963503 156.02664787 324.64963504 349.67436057v18.8105331h74.90622772v-18.8105331c0-181.05137478-106.14514707-337.24597434-249.7434087-399.55586275 68.69203391-49.8815008 131.16987261-137.38406642 131.169874-237.3150197 0-162.40879335-124.95568019-293.41071568-280.98232806-293.41071568S136.96501055 174.67005121 136.96501055 330.69669908c0 99.93095326 56.26364628 181.05137478 124.95567879 230.9328756C111.94028362 624.10741476 12.00933036 780.30201292 12.00933036 961.35338771v18.81053312h74.90622771v6.04624214zM211.87123689 330.69669908c0-112.35934089 81.12042154-212.29029414 199.86190789-212.29029415 118.57353471 0 206.07610032 93.71675945 206.07610034 206.07610034S517.87829185 530.55860561 411.73314478 530.55860561s-199.86190651-81.28837183-199.86190789-199.86190653z m0 0" p-id="9519" fill="#606266"></path></svg>